# xmcd
#
# Track frame offsets: 
#        150
#        15596
#        29443
#        45997
#        63950
#        81327
#        95703
#        109184
#        125916
#        144200
#        159686
#        178673
#        196240
#        210041
#        230306
#        246130
#        264720
#        280523
#        290848
#        307224
#        324375
#
# Disc length: 4586 seconds
#
# Revision: 0
# Processed by: cddbd v1.5.2PL0 Copyright (c) Steve Scherf et al.
# Submitted via: ExactAudioCopy v0.95b4
#
DISCID=2c11e815
DTITLE=Various Artist - R&B Summer Anthems
DYEAR=2009
DGENRE=Blues
TTITLE0=Flo Rida ft. Ke$ha - Right Round
TTITLE1=Chipmunk - Diamond Rings
TTITLE2=T.I. - Whatever You Like
TTITLE3=Rihanna - S.O.S.
TTITLE4=Jordin Sparks - Tattoo
TTITLE5=Kelly Rowland - Work (Freemasons Radio Edit)
TTITLE6=Wiley ft. Daniel Marriweather - Cash In My Pocket
TTITLE7=Jennifer Hudson - Spotlight
TTITLE8=Estelle - American Boy
TTITLE9=Sisqo - Thong Song
TTITLE10=Blackstreet ft. Dr. Dre - No Diggity
TTITLE11=Outkast - The Way You Move
TTITLE12=R Kelly - Ignition
TTITLE13=Nauhgty By Nature - O.P.P
TTITLE14=Tweet ft. Missy Elliott - Oops (Oh My)
TTITLE15=Cassidy - Hotel
TTITLE16=N.E.R.D ft. Lee Harvey and Vita - Lapdance
TTITLE17=Raphael Saadiq - 100 Yard Dash
TTITLE18=Shakira ft. Wyclef Jean - Hips Don't Lie
TTITLE19=Nelly - Hot In Here
TTITLE20=Ice Cube ft. Mack 10 And Ms Toi - You Can Do It
EXTD=
EXTT0=
EXTT1=
EXTT2=
EXTT3=
EXTT4=
EXTT5=
EXTT6=
EXTT7=
EXTT8=
EXTT9=
EXTT10=
EXTT11=
EXTT12=
EXTT13=
EXTT14=
EXTT15=
EXTT16=
EXTT17=
EXTT18=
EXTT19=
EXTT20=
PLAYORDER=
